<svg width="2141" height="339" viewBox="0 0 2141 339" fill="none" xmlns="http://www.w3.org/2000/svg">
<g clip-path="url(#clip0_84_709)">
<circle cx="114.854" cy="120.453" r="31.9738" transform="rotate(90 114.854 120.453)" fill="url(#paint0_linear_84_709)" stroke="#BAC5D2" stroke-width="10.3141"/>
<path d="M194.154 108.005C207.419 111.001 207.419 129.901 194.154 132.897C178.609 136.409 171.219 154.249 179.729 167.725C186.989 179.223 173.625 192.587 162.127 185.326C148.651 176.817 130.812 184.206 127.301 199.752C124.304 213.016 105.405 213.016 102.408 199.752C98.8967 184.206 81.0566 176.817 67.5811 185.326C56.083 192.587 42.7189 179.223 49.9795 167.725C58.489 154.249 51.0995 136.409 35.5537 132.897C22.2894 129.901 22.2893 111.001 35.5537 108.005C51.0994 104.493 58.4889 86.6543 49.9795 73.1787C42.7187 61.6806 56.083 48.3164 67.5811 55.5771C81.0566 64.0866 98.8966 56.697 102.408 41.1514C105.404 27.8868 124.305 27.8868 127.301 41.1514C130.812 56.6968 148.652 64.0863 162.127 55.5771C173.625 48.3164 186.989 61.6806 179.729 73.1787C171.219 86.6542 178.609 104.493 194.154 108.005Z" fill="url(#paint1_linear_84_709)" stroke="#BAC5D2" stroke-width="10.3141"/>
<circle cx="253.317" cy="229.727" r="22.2097" transform="rotate(90 253.317 229.727)" fill="url(#paint2_linear_84_709)" stroke="#BAC5D2" stroke-width="7.16443"/>
<path d="M308.398 221.082C317.612 223.163 317.612 236.291 308.398 238.372C297.6 240.811 292.467 253.204 298.378 262.564C303.421 270.551 294.138 279.834 286.151 274.791C276.791 268.88 264.399 274.012 261.96 284.811C259.879 294.024 246.751 294.024 244.67 284.811C242.231 274.012 229.838 268.88 220.478 274.791C212.491 279.834 203.208 270.551 208.251 262.564C214.162 253.204 209.03 240.811 198.231 238.372C189.018 236.291 189.018 223.163 198.231 221.082C209.03 218.643 214.162 206.251 208.251 196.891C203.207 188.904 212.491 179.621 220.478 184.664C229.838 190.575 242.231 185.442 244.67 174.644C246.751 165.43 259.879 165.43 261.96 174.644C264.399 185.442 276.791 190.574 286.151 184.664C294.138 179.621 303.421 188.904 298.378 196.891C292.468 206.251 297.6 218.643 308.398 221.082Z" fill="url(#paint3_linear_84_709)" stroke="#BAC5D2" stroke-width="7.16443"/>
</g>
<path d="M484.267 59.7105C486.661 59.7105 489.599 59.8194 493.081 60.037C496.563 60.2546 500.263 60.7987 504.18 61.6692C508.097 62.3221 512.015 63.4103 515.932 64.9337C519.849 66.2394 523.658 68.1981 527.358 70.8097C532.581 74.5094 536.607 78.7531 539.436 83.541C542.265 88.1112 544.333 92.7903 545.639 97.5781C546.944 102.366 547.706 107.045 547.924 111.615C548.141 116.185 548.25 120.103 548.25 123.367C548.25 130.984 547.706 137.622 546.618 143.28C545.53 148.721 542.809 153.944 538.457 158.95C536.281 161.561 534.104 163.738 531.928 165.479C529.752 167.002 527.793 168.308 526.052 169.396C530.405 171.355 533.669 173.64 535.845 176.251C538.239 178.863 540.198 181.366 541.721 183.759C544.986 189.418 546.836 194.314 547.271 198.449C547.924 202.367 548.25 207.046 548.25 212.487V229.788C548.25 232.182 548.141 235.338 547.924 239.255C547.706 243.172 546.944 247.307 545.639 251.66C544.55 256.012 542.592 260.474 539.763 265.044C537.151 269.614 533.451 273.749 528.663 277.449C524.964 280.278 519.958 282.781 513.647 284.957C507.553 287.134 499.61 288.222 489.817 288.222H440.197V59.7105H484.267ZM472.841 154.379H488.511C494.169 154.379 498.631 153.509 501.895 151.768C505.159 149.809 507.662 147.851 509.403 145.892C511.362 143.498 512.885 140.56 513.973 137.078C515.062 133.596 515.606 130.005 515.606 126.305V112.268C515.606 109.221 514.953 106.392 513.647 103.781C512.559 100.951 511.144 98.5574 509.403 96.5988C507.445 94.6401 504.724 92.8991 501.242 91.3757C497.978 89.8523 493.625 89.0906 488.184 89.0906H472.841V154.379ZM472.841 258.842H487.531C489.925 258.842 493.299 258.406 497.651 257.536C502.221 256.448 506.248 253.51 509.73 248.722C511.035 246.763 512.124 244.696 512.994 242.519C513.865 240.126 514.409 237.84 514.626 235.664C515.062 233.488 515.279 231.529 515.279 229.788C515.497 228.047 515.606 226.632 515.606 225.544V214.772C515.606 209.113 515.062 204.325 513.973 200.408C512.885 196.273 510.491 192.682 506.792 189.635C502.004 185.718 496.237 183.759 489.49 183.759H472.841V258.842ZM678.461 59.7105V90.7228H637.982V288.222H605.337V90.7228H564.858V59.7105H678.461ZM694.882 119.776C694.882 111.071 695.753 102.692 697.494 94.6401C699.235 86.3702 704.023 78.5355 711.857 71.1361C716.863 66.5659 722.63 62.975 729.159 60.3634C735.906 57.7519 743.523 56.4461 752.01 56.4461C760.498 56.4461 768.006 57.7519 774.535 60.3634C781.281 62.975 787.157 66.5659 792.163 71.1361C799.997 78.5355 804.785 86.3702 806.526 94.6401C808.267 102.692 809.138 111.071 809.138 119.776V228.156C809.138 236.861 808.267 245.349 806.526 253.619C804.785 261.671 799.997 269.397 792.163 276.796C787.157 281.366 781.281 284.957 774.535 287.569C768.006 290.18 760.498 291.486 752.01 291.486C743.523 291.486 735.906 290.18 729.159 287.569C722.63 284.957 716.863 281.366 711.857 276.796C704.023 269.397 699.235 261.671 697.494 253.619C695.753 245.349 694.882 236.861 694.882 228.156V119.776ZM776.493 114.88C776.493 111.398 776.058 108.024 775.188 104.76C774.535 101.278 772.685 98.0134 769.638 94.9666C767.897 93.2255 765.503 91.7021 762.456 90.3963C759.627 89.0905 756.145 88.4377 752.01 88.4377C747.875 88.4377 744.284 89.0905 741.237 90.3963C738.408 91.7021 736.123 93.2255 734.382 94.9666C731.335 98.0134 729.377 101.278 728.506 104.76C727.853 108.024 727.527 111.398 727.527 114.88V233.053C727.527 236.535 727.853 240.017 728.506 243.499C729.377 246.763 731.335 249.919 734.382 252.966C736.123 254.707 738.408 256.23 741.237 257.536C744.284 258.842 747.875 259.495 752.01 259.495C756.145 259.495 759.627 258.842 762.456 257.536C765.503 256.23 767.897 254.707 769.638 252.966C772.685 249.919 774.535 246.763 775.188 243.499C776.058 240.017 776.493 236.535 776.493 233.053V114.88ZM846.977 59.7105H895.618C899.1 59.7105 902.799 59.8194 906.717 60.037C910.634 60.2546 914.551 60.9075 918.469 61.9957C922.386 62.8662 926.195 64.3896 929.894 66.5659C933.812 68.5246 937.62 71.2449 941.32 74.727C948.719 82.344 953.29 90.8316 955.031 100.19C956.989 109.548 957.969 118.471 957.969 126.958V133.487C957.969 136.751 957.86 140.342 957.642 144.26C957.424 147.959 956.772 151.877 955.683 156.012C954.813 160.147 953.398 164.282 951.44 168.417C949.699 172.334 947.196 176.142 943.931 179.842C940.667 183.759 937.076 186.915 933.159 189.309C929.459 191.485 925.651 193.226 921.733 194.532C917.816 195.838 913.899 196.708 909.981 197.144C906.064 197.579 902.364 197.797 898.882 197.797H879.622V288.222H846.977V59.7105ZM879.622 168.417H897.25C900.297 168.417 903.779 167.981 907.696 167.111C911.831 166.023 915.64 163.629 919.122 159.929C922.604 156.229 924.454 152.421 924.671 148.503C925.106 144.586 925.324 140.56 925.324 136.425V121.409C925.324 117.491 924.998 113.03 924.345 108.024C923.692 103.019 921.08 98.6663 916.51 94.9666C912.81 91.9197 908.675 90.1787 904.105 89.7434C899.753 89.3082 895.4 89.0906 891.047 89.0906H879.622V168.417ZM1053.83 288.222L1043.06 239.255H1001.27L990.498 288.222H957.854L1007.8 59.7105H1036.53L1086.47 288.222H1053.83ZM1021.51 123.367L1004.54 210.201H1039.14L1021.51 123.367ZM1215.11 288.222H1182.47V189.635H1162.23L1132.85 288.222H1097.92L1131.87 182.127C1127.95 180.386 1124.69 178.428 1122.08 176.251C1119.68 173.857 1117.72 171.681 1116.2 169.722C1113.15 165.587 1110.65 160.364 1108.69 154.053C1106.73 147.524 1105.75 141.104 1105.75 134.793V117.491C1105.75 109.004 1106.84 101.387 1109.02 94.6401C1111.19 87.8936 1114.13 82.2352 1117.83 77.665C1121.75 72.8771 1125.99 69.2862 1130.56 66.8923C1135.35 64.4984 1140.25 62.7574 1145.25 61.6692C1150.48 60.5811 1155.48 60.037 1160.27 60.037C1165.28 59.8194 1169.85 59.7105 1173.98 59.7105H1215.11V288.222ZM1167.13 89.0906C1163.64 89.0906 1160.05 89.3082 1156.35 89.7434C1152.65 89.9611 1149.17 91.7021 1145.91 94.9666C1143.73 97.1429 1141.88 100.081 1140.36 103.781C1139.05 107.48 1138.4 111.506 1138.4 115.859V132.181C1138.4 136.534 1138.72 140.342 1139.38 143.607C1140.03 146.654 1141.99 149.7 1145.25 152.747C1148.3 155.794 1151.46 157.862 1154.72 158.95C1158.2 159.82 1161.79 160.255 1165.49 160.255H1182.47V89.0906H1167.13ZM1455.62 258.842V323.478H1424.6V288.222H1340.38V323.478H1309.37V258.842H1324.71C1328.41 250.789 1331.68 242.302 1334.5 233.379C1337.33 224.456 1339.62 214.772 1341.36 204.325C1342.67 196.491 1343.75 187.35 1344.62 176.904C1345.71 166.24 1346.47 155.141 1346.91 143.607C1347.34 132.072 1347.67 120.538 1347.89 109.004C1348.11 97.2517 1348.22 86.3702 1348.22 76.3592V59.7105H1437.01V258.842H1455.62ZM1378.9 89.0906V107.045C1378.9 120.973 1378.68 133.487 1378.25 144.586C1377.81 155.468 1377.27 165.261 1376.62 173.966C1375.96 182.671 1375.2 190.397 1374.33 197.144C1373.46 203.673 1372.59 209.44 1371.72 214.445C1370.41 222.28 1368.67 229.897 1366.5 237.296C1364.54 244.478 1361.71 252.204 1358.01 260.474H1404.36V89.0906H1378.9ZM1476.91 59.7105H1573.87V90.7228H1509.56V157.97H1566.36V187.35H1509.56V257.209H1574.85V288.222H1476.91V59.7105ZM1706.25 59.7105V90.7228H1665.77V288.222H1633.13V90.7228H1592.65V59.7105H1706.25ZM1794.39 288.222L1783.61 239.255H1741.83L1731.06 288.222H1698.41L1748.36 59.7105H1777.08L1827.03 288.222H1794.39ZM1762.07 123.367L1745.09 210.201H1779.7L1762.07 123.367ZM1957.63 288.222H1924.98V89.0906H1898.87L1897.89 121.082C1897.45 131.093 1897.13 139.907 1896.91 147.524C1896.69 154.924 1896.47 161.561 1896.26 167.437C1896.26 173.313 1896.04 178.645 1895.6 183.433C1895.39 188.221 1895.17 192.9 1894.95 197.47C1894.08 209.657 1893.21 219.015 1892.34 225.544C1891.47 232.073 1890.71 236.861 1890.05 239.908C1888.97 245.566 1887.33 251.116 1885.16 256.557C1882.98 261.78 1879.39 267.22 1874.38 272.879C1868.29 279.408 1862.09 283.651 1855.78 285.61C1849.47 287.351 1842.94 288.222 1836.19 288.222H1828.68V257.209H1832.27C1834.01 257.209 1835.97 257.101 1838.15 256.883C1840.33 256.448 1842.61 255.468 1845 253.945C1848.92 251.551 1851.64 248.722 1853.17 245.457C1854.91 242.193 1856 240.017 1856.43 238.929C1857.3 236.099 1858.06 232.182 1858.72 227.177C1859.59 221.953 1860.24 216.513 1860.67 210.854C1861.33 205.196 1861.76 199.864 1861.98 194.859C1862.42 189.635 1862.74 185.609 1862.96 182.78C1863.18 178.21 1863.39 173.857 1863.61 169.722C1863.83 165.37 1864.05 160.908 1864.27 156.338C1864.48 151.55 1864.7 146.327 1864.92 140.669C1865.14 135.01 1865.24 128.482 1865.24 121.082L1866.22 59.7105H1957.63V288.222ZM2029.51 59.7105V152.094H2045.51C2048.77 152.094 2052.25 152.203 2055.95 152.421C2059.65 152.421 2063.46 152.856 2067.38 153.727C2071.29 154.379 2075.21 155.576 2079.13 157.317C2083.26 159.058 2087.18 161.67 2090.88 165.152C2094.36 168.417 2097.08 171.899 2099.04 175.598C2101 179.08 2102.42 182.562 2103.29 186.045C2104.16 189.309 2104.59 192.465 2104.59 195.511C2104.81 198.341 2104.92 200.843 2104.92 203.02V229.788C2104.92 235.446 2104.37 241.431 2103.29 247.743C2102.42 253.836 2099.8 260.147 2095.45 266.676C2093.93 269.07 2091.86 271.573 2089.25 274.185C2086.86 276.578 2083.7 278.864 2079.78 281.04C2076.08 282.999 2071.4 284.74 2065.75 286.263C2060.3 287.569 2053.88 288.222 2046.48 288.222H1996.87V59.7105H2029.51ZM2029.51 258.842H2044.2C2046.38 258.842 2048.99 258.624 2052.03 258.189C2055.3 257.536 2058.35 256.121 2061.17 253.945C2064.22 251.551 2066.83 248.178 2069.01 243.825C2071.19 239.255 2072.27 232.944 2072.27 224.891V212.487C2072.27 206.828 2071.73 202.04 2070.64 198.123C2069.55 193.988 2067.16 190.397 2063.46 187.35C2058.67 183.433 2052.9 181.474 2046.16 181.474H2029.51V258.842Z" fill="#BAC5D2"/>
<defs>
<linearGradient id="paint0_linear_84_709" x1="114.854" y1="83.3223" x2="114.854" y2="157.584" gradientUnits="userSpaceOnUse">
<stop stop-color="#DDE3EA"/>
<stop offset="0.730769" stop-color="white" stop-opacity="0.2"/>
</linearGradient>
<linearGradient id="paint1_linear_84_709" x1="272.66" y1="120.451" x2="-42.9518" y2="120.451" gradientUnits="userSpaceOnUse">
<stop stop-color="#DDE3EA"/>
<stop offset="0.730769" stop-color="white" stop-opacity="0.2"/>
</linearGradient>
<linearGradient id="paint2_linear_84_709" x1="253.317" y1="203.935" x2="253.317" y2="255.518" gradientUnits="userSpaceOnUse">
<stop stop-color="#DDE3EA"/>
<stop offset="0.730769" stop-color="white" stop-opacity="0.2"/>
</linearGradient>
<linearGradient id="paint3_linear_84_709" x1="362.931" y1="229.727" x2="143.699" y2="229.727" gradientUnits="userSpaceOnUse">
<stop stop-color="#DDE3EA"/>
<stop offset="0.730769" stop-color="white" stop-opacity="0.2"/>
</linearGradient>
<clipPath id="clip0_84_709">
<rect width="339" height="339" rx="71.7115" fill="white"/>
</clipPath>
</defs>
</svg>
