<svg width="341" height="54" viewBox="0 0 341 54" fill="none" xmlns="http://www.w3.org/2000/svg">
<g clip-path="url(#clip0_49_65)">
<circle cx="18.2953" cy="19.1871" r="5.09317" transform="rotate(90 18.2953 19.1871)" fill="url(#paint0_linear_49_65)" stroke="white" stroke-width="1.64296"/>
<path d="M30.9277 17.2041C33.0402 17.6816 33.0402 20.6924 30.9277 21.1699C28.4516 21.7292 27.274 24.5703 28.6289 26.7168C29.7855 28.5484 27.6568 30.6781 25.8252 29.5215C23.6787 28.1661 20.8377 29.3431 20.2783 31.8193C19.8009 33.9319 16.79 33.9319 16.3125 31.8193C15.7531 29.3431 12.9122 28.1661 10.7656 29.5215C8.93407 30.6781 6.80435 28.5484 7.96094 26.7168C9.3163 24.5703 8.13935 21.7293 5.66309 21.1699C3.55055 20.6924 3.55054 17.6816 5.66309 17.2041C8.13937 16.6447 9.31634 13.8038 7.96094 11.6572C6.80435 9.82567 8.93407 7.69693 10.7656 8.85352C12.9121 10.2085 15.7532 9.0308 16.3125 6.55469C16.79 4.44223 19.8008 4.44222 20.2783 6.55469C20.8376 9.03081 23.6787 10.2085 25.8252 8.85352C27.6568 7.69693 29.7855 9.82567 28.6289 11.6572C27.2739 13.8037 28.4516 16.6448 30.9277 17.2041Z" fill="url(#paint1_linear_49_65)" stroke="white" stroke-width="1.64296"/>
<circle cx="40.3515" cy="36.5938" r="3.53783" transform="rotate(90 40.3515 36.5938)" fill="url(#paint2_linear_49_65)" stroke="white" stroke-width="1.14124"/>
<path d="M49.1255 35.2168C50.5932 35.5483 50.5932 37.6392 49.1255 37.9707C47.4054 38.3593 46.5882 40.3332 47.5298 41.8242C48.3331 43.0964 46.8537 44.5757 45.5815 43.7725C44.0905 42.8309 42.1166 43.6481 41.728 45.3682C41.3965 46.8358 39.3057 46.8358 38.9741 45.3682C38.5856 43.6481 36.6116 42.8309 35.1206 43.7725C33.8484 44.5757 32.3691 43.0964 33.1724 41.8242C34.1139 40.3332 33.2968 38.3593 31.5767 37.9707C30.109 37.6391 30.109 35.5484 31.5767 35.2168C33.2968 34.8283 34.1139 32.8543 33.1724 31.3633C32.3691 30.0911 33.8484 28.6118 35.1206 29.415C36.6116 30.3566 38.5856 29.5394 38.9741 27.8193C39.3057 26.3517 41.3965 26.3517 41.728 27.8193C42.1166 29.5394 44.0905 30.3566 45.5815 29.415C46.8538 28.6117 48.3331 30.0911 47.5298 31.3633C46.5882 32.8543 47.4054 34.8283 49.1255 35.2168Z" fill="url(#paint3_linear_49_65)" stroke="white" stroke-width="1.14124"/>
</g>
<path d="M77.14 9.6C77.5213 9.6 77.9893 9.61733 78.544 9.652C79.0987 9.68667 79.688 9.77333 80.312 9.912C80.936 10.016 81.56 10.1893 82.184 10.432C82.808 10.64 83.4147 10.952 84.004 11.368C84.836 11.9573 85.4773 12.6333 85.928 13.396C86.3787 14.124 86.708 14.8693 86.916 15.632C87.124 16.3947 87.2453 17.14 87.28 17.868C87.3147 18.596 87.332 19.22 87.332 19.74C87.332 20.9533 87.2453 22.0107 87.072 22.912C86.8987 23.7787 86.4653 24.6107 85.772 25.408C85.4253 25.824 85.0787 26.1707 84.732 26.448C84.3853 26.6907 84.0733 26.8987 83.796 27.072C84.4893 27.384 85.0093 27.748 85.356 28.164C85.7373 28.58 86.0493 28.9787 86.292 29.36C86.812 30.2613 87.1067 31.0413 87.176 31.7C87.28 32.324 87.332 33.0693 87.332 33.936V36.692C87.332 37.0733 87.3147 37.576 87.28 38.2C87.2453 38.824 87.124 39.4827 86.916 40.176C86.7427 40.8693 86.4307 41.58 85.98 42.308C85.564 43.036 84.9747 43.6947 84.212 44.284C83.6227 44.7347 82.8253 45.1333 81.82 45.48C80.8493 45.8267 79.584 46 78.024 46H70.12V9.6H77.14ZM75.32 24.68H77.816C78.7173 24.68 79.428 24.5413 79.948 24.264C80.468 23.952 80.8667 23.64 81.144 23.328C81.456 22.9467 81.6987 22.4787 81.872 21.924C82.0453 21.3693 82.132 20.7973 82.132 20.208V17.972C82.132 17.4867 82.028 17.036 81.82 16.62C81.6467 16.1693 81.4213 15.788 81.144 15.476C80.832 15.164 80.3987 14.8867 79.844 14.644C79.324 14.4013 78.6307 14.28 77.764 14.28H75.32V24.68ZM75.32 41.32H77.66C78.0413 41.32 78.5787 41.2507 79.272 41.112C80 40.9387 80.6413 40.4707 81.196 39.708C81.404 39.396 81.5773 39.0667 81.716 38.72C81.8547 38.3387 81.9413 37.9747 81.976 37.628C82.0453 37.2813 82.08 36.9693 82.08 36.692C82.1147 36.4147 82.132 36.1893 82.132 36.016V34.3C82.132 33.3987 82.0453 32.636 81.872 32.012C81.6987 31.3533 81.3173 30.7813 80.728 30.296C79.9653 29.672 79.0467 29.36 77.972 29.36H75.32V41.32ZM108.074 9.6V14.54H101.626V46H96.4255V14.54H89.9775V9.6H108.074ZM110.689 19.168C110.689 17.7813 110.828 16.4467 111.105 15.164C111.383 13.8467 112.145 12.5987 113.393 11.42C114.191 10.692 115.109 10.12 116.149 9.704C117.224 9.288 118.437 9.08 119.789 9.08C121.141 9.08 122.337 9.288 123.377 9.704C124.452 10.12 125.388 10.692 126.185 11.42C127.433 12.5987 128.196 13.8467 128.473 15.164C128.751 16.4467 128.889 17.7813 128.889 19.168V36.432C128.889 37.8187 128.751 39.1707 128.473 40.488C128.196 41.7707 127.433 43.0013 126.185 44.18C125.388 44.908 124.452 45.48 123.377 45.896C122.337 46.312 121.141 46.52 119.789 46.52C118.437 46.52 117.224 46.312 116.149 45.896C115.109 45.48 114.191 44.908 113.393 44.18C112.145 43.0013 111.383 41.7707 111.105 40.488C110.828 39.1707 110.689 37.8187 110.689 36.432V19.168ZM123.689 18.388C123.689 17.8333 123.62 17.296 123.481 16.776C123.377 16.2213 123.083 15.7013 122.597 15.216C122.32 14.9387 121.939 14.696 121.453 14.488C121.003 14.28 120.448 14.176 119.789 14.176C119.131 14.176 118.559 14.28 118.073 14.488C117.623 14.696 117.259 14.9387 116.981 15.216C116.496 15.7013 116.184 16.2213 116.045 16.776C115.941 17.296 115.889 17.8333 115.889 18.388V37.212C115.889 37.7667 115.941 38.3213 116.045 38.876C116.184 39.396 116.496 39.8987 116.981 40.384C117.259 40.6613 117.623 40.904 118.073 41.112C118.559 41.32 119.131 41.424 119.789 41.424C120.448 41.424 121.003 41.32 121.453 41.112C121.939 40.904 122.32 40.6613 122.597 40.384C123.083 39.8987 123.377 39.396 123.481 38.876C123.62 38.3213 123.689 37.7667 123.689 37.212V18.388ZM134.917 9.6H142.665C143.22 9.6 143.809 9.61733 144.433 9.652C145.057 9.68667 145.681 9.79067 146.305 9.964C146.929 10.1027 147.536 10.3453 148.125 10.692C148.749 11.004 149.356 11.4373 149.945 11.992C151.124 13.2053 151.852 14.5573 152.129 16.048C152.441 17.5387 152.597 18.96 152.597 20.312V21.352C152.597 21.872 152.58 22.444 152.545 23.068C152.51 23.6573 152.406 24.2813 152.233 24.94C152.094 25.5987 151.869 26.2573 151.557 26.916C151.28 27.54 150.881 28.1467 150.361 28.736C149.841 29.36 149.269 29.8627 148.645 30.244C148.056 30.5907 147.449 30.868 146.825 31.076C146.201 31.284 145.577 31.4227 144.953 31.492C144.329 31.5613 143.74 31.596 143.185 31.596H140.117V46H134.917V9.6ZM140.117 26.916H142.925C143.41 26.916 143.965 26.8467 144.589 26.708C145.248 26.5347 145.854 26.1533 146.409 25.564C146.964 24.9747 147.258 24.368 147.293 23.744C147.362 23.12 147.397 22.4787 147.397 21.82V19.428C147.397 18.804 147.345 18.0933 147.241 17.296C147.137 16.4987 146.721 15.8053 145.993 15.216C145.404 14.7307 144.745 14.4533 144.017 14.384C143.324 14.3147 142.63 14.28 141.937 14.28H140.117V26.916ZM167.867 46L166.151 38.2H159.495L157.779 46H152.579L160.535 9.6H165.111L173.067 46H167.867ZM162.719 19.74L160.015 33.572H165.527L162.719 19.74ZM193.558 46H188.358V30.296H185.134L180.454 46H174.89L180.298 29.1C179.674 28.8227 179.154 28.5107 178.738 28.164C178.357 27.7827 178.045 27.436 177.802 27.124C177.317 26.4653 176.918 25.6333 176.606 24.628C176.294 23.588 176.138 22.5653 176.138 21.56V18.804C176.138 17.452 176.311 16.2387 176.658 15.164C177.005 14.0893 177.473 13.188 178.062 12.46C178.686 11.6973 179.362 11.1253 180.09 10.744C180.853 10.3627 181.633 10.0853 182.43 9.912C183.262 9.73866 184.059 9.652 184.822 9.652C185.619 9.61733 186.347 9.6 187.006 9.6H193.558V46ZM185.914 14.28C185.359 14.28 184.787 14.3147 184.198 14.384C183.609 14.4187 183.054 14.696 182.534 15.216C182.187 15.5627 181.893 16.0307 181.65 16.62C181.442 17.2093 181.338 17.8507 181.338 18.544V21.144C181.338 21.8373 181.39 22.444 181.494 22.964C181.598 23.4493 181.91 23.9347 182.43 24.42C182.915 24.9053 183.418 25.2347 183.938 25.408C184.493 25.5467 185.065 25.616 185.654 25.616H188.358V14.28H185.914ZM231.868 41.32V51.616H226.928V46H213.512V51.616H208.572V41.32H211.016C211.605 40.0373 212.125 38.6853 212.576 37.264C213.027 35.8427 213.391 34.3 213.668 32.636C213.876 31.388 214.049 29.932 214.188 28.268C214.361 26.5693 214.483 24.8013 214.552 22.964C214.621 21.1267 214.673 19.2893 214.708 17.452C214.743 15.58 214.76 13.8467 214.76 12.252V9.6H228.904V41.32H231.868ZM219.648 14.28V17.14C219.648 19.3587 219.613 21.352 219.544 23.12C219.475 24.8533 219.388 26.4133 219.284 27.8C219.18 29.1867 219.059 30.4173 218.92 31.492C218.781 32.532 218.643 33.4507 218.504 34.248C218.296 35.496 218.019 36.7093 217.672 37.888C217.36 39.032 216.909 40.2627 216.32 41.58H223.704V14.28H219.648ZM235.261 9.6H250.705V14.54H240.461V25.252H249.509V29.932H240.461V41.06H250.861V46H235.261V9.6ZM271.792 9.6V14.54H265.344V46H260.144V14.54H253.696V9.6H271.792ZM285.831 46L284.115 38.2H277.459L275.743 46H270.543L278.499 9.6H283.075L291.031 46H285.831ZM280.683 19.74L277.979 33.572H283.491L280.683 19.74ZM311.835 46H306.635V14.28H302.475L302.319 19.376C302.249 20.9707 302.197 22.3747 302.163 23.588C302.128 24.7667 302.093 25.824 302.059 26.76C302.059 27.696 302.024 28.5453 301.955 29.308C301.92 30.0707 301.885 30.816 301.851 31.544C301.712 33.4853 301.573 34.976 301.435 36.016C301.296 37.056 301.175 37.8187 301.071 38.304C300.897 39.2053 300.637 40.0893 300.291 40.956C299.944 41.788 299.372 42.6547 298.575 43.556C297.604 44.596 296.616 45.272 295.611 45.584C294.605 45.8613 293.565 46 292.491 46H291.295V41.06H291.867C292.144 41.06 292.456 41.0427 292.803 41.008C293.149 40.9387 293.513 40.7827 293.895 40.54C294.519 40.1587 294.952 39.708 295.195 39.188C295.472 38.668 295.645 38.3213 295.715 38.148C295.853 37.6973 295.975 37.0733 296.079 36.276C296.217 35.444 296.321 34.5773 296.391 33.676C296.495 32.7747 296.564 31.9253 296.599 31.128C296.668 30.296 296.72 29.6547 296.755 29.204C296.789 28.476 296.824 27.7827 296.859 27.124C296.893 26.4307 296.928 25.72 296.963 24.992C296.997 24.2293 297.032 23.3973 297.067 22.496C297.101 21.5947 297.119 20.5547 297.119 19.376L297.275 9.6H311.835V46ZM323.285 9.6V24.316H325.833C326.353 24.316 326.908 24.3333 327.497 24.368C328.086 24.368 328.693 24.4373 329.317 24.576C329.941 24.68 330.565 24.8707 331.189 25.148C331.848 25.4253 332.472 25.8413 333.061 26.396C333.616 26.916 334.049 27.4707 334.361 28.06C334.673 28.6147 334.898 29.1693 335.037 29.724C335.176 30.244 335.245 30.7467 335.245 31.232C335.28 31.6827 335.297 32.0813 335.297 32.428V36.692C335.297 37.5933 335.21 38.5467 335.037 39.552C334.898 40.5227 334.482 41.528 333.789 42.568C333.546 42.9493 333.217 43.348 332.801 43.764C332.42 44.1453 331.917 44.5093 331.293 44.856C330.704 45.168 329.958 45.4453 329.057 45.688C328.19 45.896 327.168 46 325.989 46H318.085V9.6H323.285ZM323.285 41.32H325.625C325.972 41.32 326.388 41.2853 326.873 41.216C327.393 41.112 327.878 40.8867 328.329 40.54C328.814 40.1587 329.23 39.6213 329.577 38.928C329.924 38.2 330.097 37.1947 330.097 35.912V33.936C330.097 33.0347 330.01 32.272 329.837 31.648C329.664 30.9893 329.282 30.4173 328.693 29.932C327.93 29.308 327.012 28.996 325.937 28.996H323.285V41.32Z" fill="#E9ECF4"/>
<defs>
<linearGradient id="paint0_linear_49_65" x1="18.2953" y1="13.2725" x2="18.2953" y2="25.1017" gradientUnits="userSpaceOnUse">
<stop stop-color="white"/>
<stop offset="1" stop-color="white" stop-opacity="0.2"/>
</linearGradient>
<linearGradient id="paint1_linear_49_65" x1="43.4326" y1="19.187" x2="-6.84185" y2="19.187" gradientUnits="userSpaceOnUse">
<stop stop-color="white"/>
<stop offset="1" stop-color="white" stop-opacity="0.2"/>
</linearGradient>
<linearGradient id="paint2_linear_49_65" x1="40.3515" y1="32.4854" x2="40.3515" y2="40.7023" gradientUnits="userSpaceOnUse">
<stop stop-color="white"/>
<stop offset="1" stop-color="white" stop-opacity="0.2"/>
</linearGradient>
<linearGradient id="paint3_linear_49_65" x1="57.812" y1="36.5937" x2="22.8902" y2="36.5937" gradientUnits="userSpaceOnUse">
<stop stop-color="white"/>
<stop offset="1" stop-color="white" stop-opacity="0.2"/>
</linearGradient>
<clipPath id="clip0_49_65">
<rect width="54" height="54" rx="11.4231" fill="white"/>
</clipPath>
</defs>
</svg>
