<svg width="72" height="48" viewBox="0 0 72 48" fill="none" xmlns="http://www.w3.org/2000/svg">
<path d="M7.2804 39.5966C7.90259 42.7076 11.3247 43.0187 13.8135 35.2413C15.2652 30.3674 18.6666 20.1219 20.6576 18.1309" stroke="black" stroke-width="0.629777" stroke-linecap="round"/>
<path d="M18.1695 27.4631C20.6582 24.9753 23.147 28.7075 20.6582 34.3072C17.5479 42.0844 13.1913 36.4846 17.5473 30.8849" stroke="black" stroke-width="0.629777" stroke-linecap="round"/>
<circle cx="22.5241" cy="36.4845" r="0.622196" fill="black"/>
<path d="M6.34741 29.0184C8.5251 19.0624 17.9159 15.33 15.3693 24.0408C9.45839 44.2612 4.48082 29.019 12.2583 22.1741C16.3026 18.6147 21.7157 16.761 24.7022 13.7744" stroke="black" stroke-width="0.629777" stroke-linecap="round"/>
<path d="M30.6123 29.6407C33.4122 27.463 36.9587 20.6188 32.4789 20.6188C29.3676 20.6188 24.3907 29.6407 29.0564 32.7516C30.4364 33.5575 33.5675 32.7516 35.7895 28.0852C38.2783 22.8587 43.7824 10.7674 46.1675 5.375L40.2566 28.0852C41.0862 23.7298 41.8743 15.019 38.39 15.019C34.0346 15.019 35.279 26.2186 38.39 26.2186C40.8788 26.2186 43.1602 23.7298 43.9898 22.4854L47.4119 17.1967C46.3749 20.6188 44.7986 26.9652 46.7897 24.9742C48.7807 22.9832 50.9376 18.13 51.7672 15.9523C52.7978 13.2472 50.2573 12.3026 48.9674 18.7522C46.7897 29.6407 52.0783 21.6143 52.0783 18.13" stroke="black" stroke-width="0.629777" stroke-linecap="round"/>
<path d="M35.856 38.4573C29.5535 42.3092 16.8962 45.366 27.1305 38.9107L58.7923 19.7186C69.9507 12.5365 62.2018 7.53851 57.8625 15.6591C53.833 22.4263 45.7742 35.5852 45.7742 40.3323" stroke="black" stroke-width="0.629777" stroke-linecap="round"/>
</svg>
